<svg width="32" height="32" viewBox="0 0 32 32" fill="none" xmlns="http://www.w3.org/2000/svg">
<rect width="32" height="32" rx="16" fill="#4D9E76"/>
<path d="M22.7112 9.8175C22.7031 9.67989 22.6448 9.55002 22.5474 9.45255C22.4499 9.35508 22.32 9.29679 22.1824 9.28875C16.8295 8.97446 12.5419 10.586 10.7137 13.6095C10.08 14.6437 9.76779 15.8428 9.81654 17.0548C9.85662 18.1741 10.1829 19.3048 10.7862 20.4192L9.41436 21.7903C9.30881 21.8959 9.24951 22.039 9.24951 22.1883C9.24951 22.3376 9.30881 22.4807 9.41436 22.5863C9.5199 22.6918 9.66306 22.7511 9.81232 22.7511C9.96159 22.7511 10.1047 22.6918 10.2103 22.5863L11.5814 21.2145C12.6951 21.817 13.8265 22.1433 14.9451 22.1834C15.0234 22.1862 15.1015 22.1876 15.1793 22.1876C16.3125 22.1906 17.4243 21.8785 18.3905 21.2862C21.4139 19.458 23.0262 15.1711 22.7112 9.8175ZM17.8104 20.3243C16.2108 21.2932 14.3172 21.3087 12.4167 20.3784L18.6485 14.1473C18.7008 14.0951 18.7422 14.033 18.7705 13.9648C18.7988 13.8965 18.8133 13.8233 18.8133 13.7494C18.8133 13.6755 18.7988 13.6023 18.7705 13.534C18.7422 13.4657 18.7008 13.4037 18.6485 13.3514C18.5962 13.2991 18.5342 13.2577 18.4659 13.2294C18.3976 13.2011 18.3244 13.1866 18.2505 13.1866C18.1766 13.1866 18.1034 13.2011 18.0351 13.2294C17.9669 13.2577 17.9048 13.2991 17.8526 13.3514L11.6215 19.586C10.694 17.6876 10.7074 15.7891 11.6756 14.1923C13.2288 11.6281 16.9209 10.2239 21.6115 10.3913C21.7795 15.0783 20.3747 18.7711 17.8104 20.3243Z" fill="white"/>
</svg>
